<svg width="305" height="897" viewBox="0 0 305 897" fill="none" xmlns="http://www.w3.org/2000/svg">
<path d="M56.5 630.5V746H247V630.5H279V847.117C262.424 862.239 247.611 872.647 228.516 879.985C209.154 887.426 185.268 891.757 150.487 894.494C117.233 892.307 93.9897 888.388 74.8262 881.022C55.9104 873.752 40.8435 863.072 24 847.137V630.5H56.5Z" stroke="white" stroke-width="4"/>
<path d="M238 567.29V734H66V567.242L65.9346 566.992V566.991C65.9344 566.99 65.9339 566.989 65.9336 566.988C65.9328 566.985 65.9312 566.98 65.9297 566.974C65.9266 566.962 65.9222 566.944 65.916 566.921C65.9034 566.872 65.8844 566.8 65.8594 566.703C65.8092 566.509 65.7349 566.219 65.6377 565.839C65.4433 565.077 65.1577 563.949 64.7969 562.489C64.0752 559.569 63.0502 555.32 61.8379 550.014C59.4131 539.402 56.2411 524.564 53.2539 507.67C47.2706 473.83 42.063 431.924 44.9922 399.177C45.8597 389.479 46.1002 382.941 46.3477 378.18C46.5976 373.372 46.8525 370.552 47.665 368.02C48.4644 365.53 49.8495 363.188 52.6377 359.49C55.4487 355.762 59.4995 350.889 65.5664 343.243C86.4924 316.87 119.628 303.286 152.654 303.124C185.678 302.961 218.341 316.215 238.395 343.193C244.154 350.941 247.856 355.895 250.261 359.619C252.641 363.304 253.637 365.616 254.086 368.053C254.556 370.606 254.457 373.381 254.388 378.223C254.32 382.99 254.3 389.48 255.006 399.145C257.399 431.9 253.177 473.847 248.328 507.702C245.907 524.609 243.334 539.46 241.367 550.084C240.384 555.395 239.552 559.648 238.967 562.572C238.674 564.034 238.443 565.164 238.285 565.927C238.206 566.309 238.146 566.599 238.105 566.793C238.085 566.89 238.07 566.963 238.06 567.011L238.045 567.08C238.045 567.081 238.044 567.082 238.044 567.083C238.044 567.083 238.044 567.084 240 567.5L238.044 567.084L238 567.29Z" stroke="white" stroke-width="4"/>
<path d="M21.9206 183.802C22.0336 170.304 31.7119 161.69 43.4687 157.632C49.3253 155.61 55.5701 154.78 61.1123 155.068C66.7028 155.358 71.3405 156.769 74.1849 158.984C76.0964 160.473 78.7296 163.704 81.9288 168.482C85.0858 173.197 88.67 179.226 92.5003 186.117C100.159 199.895 108.745 217.014 116.796 233.733C124.846 250.447 132.35 266.739 137.842 278.853C140.588 284.909 142.83 289.921 144.386 293.417C144.876 294.52 145.297 295.474 145.646 296.26C145.088 296.298 144.458 296.342 143.767 296.395C140.806 296.622 136.686 297 132.049 297.603C122.828 298.802 111.356 300.916 102.901 304.603C94.2012 308.398 84.6243 315.635 77.3126 321.813C73.6354 324.92 70.4905 327.794 68.2643 329.892C67.7969 330.333 67.3702 330.74 66.9869 331.107C66.7164 330.329 66.3961 329.408 66.0312 328.355C64.7644 324.699 62.9545 319.455 60.7833 313.105C56.4405 300.404 50.6526 283.278 44.8702 265.577C39.0865 247.872 33.3132 229.607 28.9977 214.622C26.8394 207.128 25.0519 200.473 23.8101 195.13C22.5516 189.714 21.9036 185.843 21.9206 183.802Z" stroke="white" stroke-width="4"/>
<path d="M103 2H131C134.866 2 138 5.13401 138 9V89C138 92.866 134.866 96 131 96H103C99.134 96 96 92.866 96 89V9L96.0088 8.63965C96.1903 5.06046 99.0605 2.19028 102.64 2.00879L103 2Z" stroke="white" stroke-width="4"/>
<circle cx="69" cy="118" r="29" stroke="white" stroke-width="4"/>
<path d="M282.727 183.802C282.614 170.304 272.936 161.69 261.179 157.632C255.322 155.61 249.078 154.78 243.535 155.068C237.945 155.358 233.307 156.769 230.463 158.984C228.551 160.473 225.918 163.704 222.719 168.482C219.562 173.197 215.978 179.226 212.147 186.117C204.489 199.895 195.903 217.014 187.851 233.733C179.802 250.447 172.298 266.739 166.806 278.853C164.06 284.909 161.818 289.921 160.262 293.417C159.771 294.52 159.35 295.474 159.002 296.26C159.56 296.298 160.189 296.342 160.881 296.395C163.842 296.622 167.961 297 172.599 297.603C181.82 298.802 193.292 300.916 201.746 304.603C210.446 308.398 220.023 315.635 227.335 321.813C231.012 324.92 234.157 327.794 236.383 329.892C236.851 330.333 237.278 330.74 237.661 331.107C237.931 330.329 238.252 329.408 238.617 328.355C239.883 324.699 241.693 319.455 243.864 313.105C248.207 300.404 253.995 283.278 259.778 265.577C265.561 247.872 271.335 229.607 275.65 214.622C277.808 207.128 279.596 200.473 280.838 195.13C282.096 189.714 282.744 185.843 282.727 183.802Z" stroke="white" stroke-width="4"/>
<path d="M201.648 2H173.648C169.782 2 166.648 5.13401 166.648 9V89C166.648 92.866 169.782 96 173.648 96H201.648C205.514 96 208.648 92.866 208.648 89V9L208.639 8.63965C208.457 5.06046 205.587 2.19028 202.008 2.00879L201.648 2Z" stroke="white" stroke-width="4"/>
<circle cx="31" cy="31" r="29" transform="matrix(-1 0 0 1 266.648 87)" stroke="white" stroke-width="4"/>
</svg>
