<svg width="529" height="833" viewBox="0 0 529 833" fill="none" xmlns="http://www.w3.org/2000/svg">
<path d="M168.5 566.5V682H359V566.5H391V783.117C374.424 798.239 359.611 808.647 340.516 815.985C321.154 823.426 297.268 827.757 262.487 830.494C229.233 828.307 205.99 824.388 186.826 817.022C167.91 809.752 152.844 799.072 136 783.137V566.5H168.5Z" stroke="white" stroke-width="4"/>
<path d="M350 503.29V670H178V503.242L177.935 502.992V502.991C177.934 502.99 177.934 502.989 177.934 502.988C177.933 502.985 177.931 502.98 177.93 502.974C177.927 502.962 177.922 502.944 177.916 502.921C177.903 502.872 177.884 502.8 177.859 502.703C177.809 502.509 177.735 502.219 177.638 501.839C177.443 501.077 177.158 499.949 176.797 498.489C176.075 495.569 175.05 491.32 173.838 486.014C171.413 475.402 168.241 460.564 165.254 443.67C159.271 409.83 154.063 367.924 156.992 335.177C157.86 325.479 158.1 318.941 158.348 314.18C158.598 309.372 158.852 306.552 159.665 304.02C160.464 301.53 161.849 299.188 164.638 295.49C167.449 291.762 171.5 286.889 177.566 279.243C198.492 252.87 231.628 239.286 264.654 239.124C297.678 238.961 330.341 252.215 350.395 279.193C356.154 286.941 359.856 291.895 362.261 295.619C364.641 299.304 365.637 301.616 366.086 304.053C366.556 306.606 366.457 309.381 366.388 314.223C366.32 318.99 366.3 325.48 367.006 335.145C369.399 367.9 365.177 409.847 360.328 443.702C357.907 460.609 355.334 475.46 353.367 486.084C352.384 491.395 351.552 495.648 350.967 498.572C350.674 500.034 350.443 501.164 350.285 501.927C350.206 502.309 350.146 502.599 350.105 502.793C350.085 502.89 350.07 502.963 350.06 503.011L350.045 503.08C350.045 503.081 350.044 503.082 350.044 503.083C350.044 503.083 350.044 503.084 352 503.5L350.044 503.084L350 503.29Z" stroke="white" stroke-width="4"/>
<path d="M39.3518 203.722C33.3801 191.617 38.1482 179.57 46.822 170.656C51.1429 166.216 56.3468 162.665 61.4257 160.428C66.5489 158.172 71.3257 157.346 74.8625 158.045C77.2395 158.514 81.0447 160.215 86.0515 163.043C90.9923 165.834 96.9055 169.605 103.427 174.036C116.465 182.896 131.835 194.321 146.547 205.63C161.256 216.936 175.287 228.109 185.642 236.457C190.819 240.631 195.076 244.098 198.039 246.521C198.973 247.285 199.778 247.947 200.443 248.493C199.962 248.778 199.42 249.1 198.826 249.459C196.283 250.994 192.775 253.185 188.904 255.809C181.209 261.029 171.914 268.078 166.023 275.175C159.96 282.478 154.663 293.25 150.912 302.057C149.026 306.486 147.511 310.467 146.466 313.343C146.247 313.946 146.049 314.502 145.872 315.003C145.281 314.43 144.58 313.751 143.78 312.975C141.004 310.28 137.029 306.411 132.233 301.716C122.64 292.327 109.766 279.636 96.6382 266.429C83.5076 253.219 70.1342 239.505 59.5383 228.063C54.239 222.341 49.6489 217.203 46.1356 212.989C42.5751 208.718 40.2547 205.553 39.3518 203.722Z" stroke="white" stroke-width="4"/>
<path d="M17 2H45C48.866 2 52 5.13401 52 9V89C52 92.866 48.866 96 45 96H17C13.134 96 10 92.866 10 89V9L10.0088 8.63965C10.1903 5.06046 13.0605 2.19028 16.6396 2.00879L17 2Z" stroke="white" stroke-width="4"/>
<circle cx="31" cy="132" r="29" stroke="white" stroke-width="4"/>
<path d="M489.595 203.722C495.567 191.617 490.799 179.57 482.125 170.656C477.804 166.216 472.6 162.665 467.521 160.428C462.398 158.172 457.621 157.346 454.084 158.045C451.707 158.514 447.902 160.215 442.895 163.043C437.955 165.834 432.041 169.605 425.52 174.036C412.482 182.896 397.112 194.321 382.399 205.63C367.691 216.936 353.66 228.109 343.305 236.457C338.128 240.631 333.871 244.098 330.908 246.521C329.973 247.285 329.169 247.947 328.504 248.493C328.985 248.778 329.527 249.1 330.121 249.459C332.663 250.994 336.172 253.185 340.042 255.809C347.738 261.029 357.033 268.078 362.924 275.175C368.987 282.478 374.284 293.25 378.034 302.057C379.921 306.486 381.436 310.467 382.48 313.343C382.7 313.946 382.898 314.502 383.075 315.003C383.666 314.43 384.367 313.751 385.166 312.975C387.942 310.28 391.918 306.411 396.714 301.716C406.307 292.327 419.181 279.636 432.309 266.429C445.439 253.219 458.813 239.505 469.409 228.063C474.708 222.341 479.298 217.203 482.811 212.989C486.372 208.718 488.692 205.553 489.595 203.722Z" stroke="white" stroke-width="4"/>
<path d="M511.947 2H483.947C480.081 2 476.947 5.13401 476.947 9V89C476.947 92.866 480.081 96 483.947 96H511.947C515.813 96 518.947 92.866 518.947 89V9L518.938 8.63965C518.756 5.06046 515.886 2.19028 512.307 2.00879L511.947 2Z" stroke="white" stroke-width="4"/>
<circle cx="31" cy="31" r="29" transform="matrix(-1 0 0 1 528.947 101)" stroke="white" stroke-width="4"/>
</svg>
