<svg width="598" height="260" viewBox="0 0 598 260" fill="none" xmlns="http://www.w3.org/2000/svg">
<path d="M286.953 62.0198C262.362 114.367 262.598 143.074 286.953 193.02" stroke="white" stroke-width="9" stroke-linecap="round"/>
<path d="M254 5C207.109 104.899 207.558 159.684 254 255" stroke="white" stroke-width="9" stroke-linecap="round"/>
<ellipse cx="326.5" cy="126" rx="24.5" ry="61" fill="white"/>
<path d="M334.5 45C337.059 45 340.084 46.3543 343.422 50.0898C346.756 53.8218 349.988 59.5053 352.804 66.9561C358.422 81.8222 362 102.696 362 126C362 149.304 358.422 170.178 352.804 185.044C349.988 192.495 346.756 198.178 343.422 201.91C340.084 205.646 337.059 207 334.5 207C331.941 207 328.916 205.646 325.578 201.91C322.244 198.178 319.012 192.495 316.196 185.044C310.578 170.178 307 149.304 307 126C307 102.696 310.578 81.8222 316.196 66.9561C319.012 59.5053 322.244 53.8218 325.578 50.0898C328.916 46.3543 331.941 45 334.5 45Z" stroke="white" stroke-width="10"/>
<path d="M334 40H584C591.732 40 598 46.268 598 54V198C598 205.732 591.732 212 584 212H334L359.803 172.198C361.363 169.791 362.147 166.963 362.047 164.096L359.141 80.5671C359.049 77.9107 358.202 75.3354 356.7 73.1425L334 40Z" fill="white"/>
<path d="M0 92L84 122.481V212L0 181.519V92Z" fill="white"/>
<path d="M172 92L89 122.481V212L172 181.519V92Z" fill="white"/>
<path d="M85.3361 64.5093L171.844 89.0376L85.3361 119.036L1.51886 89.0376L85.3361 64.5093Z" fill="white"/>
</svg>
