<svg width="524" height="445" viewBox="0 0 524 445" fill="none" xmlns="http://www.w3.org/2000/svg">
<path d="M133.951 153.88C109.361 206.227 109.596 234.935 133.951 284.88" stroke="white" stroke-width="9" stroke-linecap="round"/>
<path d="M66 5C-15.7244 178.823 -14.9413 274.15 66 440" stroke="white" stroke-width="9" stroke-linecap="round"/>
<path d="M100.998 96.8607C54.107 196.759 54.5563 251.544 100.998 346.861" stroke="white" stroke-width="9" stroke-linecap="round"/>
<ellipse cx="252.5" cy="219" rx="24.5" ry="61" fill="white"/>
<path d="M260.5 138C263.059 138 266.084 139.354 269.422 143.09C272.756 146.822 275.988 152.505 278.804 159.956C284.422 174.822 288 195.696 288 219C288 242.304 284.422 263.178 278.804 278.044C275.988 285.495 272.756 291.178 269.422 294.91C266.084 298.646 263.059 300 260.5 300C257.941 300 254.916 298.646 251.578 294.91C248.244 291.178 245.012 285.495 242.196 278.044C236.578 263.178 233 242.304 233 219C233 195.696 236.578 174.822 242.196 159.956C245.012 152.505 248.244 146.822 251.578 143.09C254.916 139.354 257.941 138 260.5 138Z" stroke="white" stroke-width="10"/>
<path d="M260 133H510C517.732 133 524 139.268 524 147V291C524 298.732 517.732 305 510 305H260L285.803 265.198C287.363 262.791 288.147 259.963 288.047 257.096L285.141 173.567C285.049 170.911 284.202 168.335 282.7 166.143L260 133Z" fill="white"/>
</svg>
